<svg width="1280" height="720" viewBox="0 0 1280 720" xmlns="http://www.w3.org/2000/svg">
  <defs>
    <linearGradient id="bg" x1="0%" y1="0%" x2="100%" y2="100%">
      <stop offset="0%" style="stop-color:#f8fafc;stop-opacity:1" />
      <stop offset="100%" style="stop-color:#e2e8f0;stop-opacity:1" />
    </linearGradient>
  </defs>
  
  <!-- Background -->
  <rect width="1280" height="720" fill="url(#bg)"/>
  
  <!-- Header -->
  <rect x="0" y="0" width="1280" height="64" fill="#1f2937"/>
  <text x="24" y="38" font-family="Arial, sans-serif" font-size="20" font-weight="bold" fill="#ffffff">6FB AI Agent System</text>
  
  <!-- Sidebar -->
  <rect x="0" y="64" width="256" height="656" fill="#ffffff" stroke="#e5e7eb"/>
  <text x="24" y="100" font-family="Arial, sans-serif" font-size="16" font-weight="bold" fill="#374151">Navigation</text>
  
  <!-- Main Content -->
  <rect x="256" y="64" width="1024" height="656" fill="#ffffff"/>
  
  <!-- Dashboard Cards -->
  <rect x="288" y="96" width="300" height="200" fill="#f9fafb" stroke="#e5e7eb" rx="8"/>
  <text x="308" y="120" font-family="Arial, sans-serif" font-size="18" font-weight="bold" fill="#111827">AI Agents</text>
  <text x="308" y="145" font-family="Arial, sans-serif" font-size="14" fill="#6b7280">Manage your AI consultants</text>
  
  <rect x="612" y="96" width="300" height="200" fill="#f9fafb" stroke="#e5e7eb" rx="8"/>
  <text x="632" y="120" font-family="Arial, sans-serif" font-size="18" font-weight="bold" fill="#111827">Integrations</text>
  <text x="632" y="145" font-family="Arial, sans-serif" font-size="14" fill="#6b7280">Connect your tools</text>
  
  <rect x="936" y="96" width="300" height="200" fill="#f9fafb" stroke="#e5e7eb" rx="8"/>
  <text x="956" y="120" font-family="Arial, sans-serif" font-size="18" font-weight="bold" fill="#111827">Analytics</text>
  <text x="956" y="145" font-family="Arial, sans-serif" font-size="14" fill="#6b7280">Business insights</text>
  
  <!-- Charts Area -->
  <rect x="288" y="320" width="960" height="300" fill="#f9fafb" stroke="#e5e7eb" rx="8"/>
  <text x="308" y="345" font-family="Arial, sans-serif" font-size="18" font-weight="bold" fill="#111827">Performance Dashboard</text>
  
  <!-- Placeholder chart -->
  <polyline points="320,400 400,380 480,360 560,340 640,380 720,350 800,320 880,340 960,320 1040,300 1120,280" 
            stroke="#3b82f6" stroke-width="3" fill="none"/>
</svg>