<svg width="640" height="1136" viewBox="0 0 640 1136" xmlns="http://www.w3.org/2000/svg">
  <defs>
    <linearGradient id="bg-mobile" x1="0%" y1="0%" x2="100%" y2="100%">
      <stop offset="0%" style="stop-color:#f8fafc;stop-opacity:1" />
      <stop offset="100%" style="stop-color:#e2e8f0;stop-opacity:1" />
    </linearGradient>
  </defs>
  
  <!-- Background -->
  <rect width="640" height="1136" fill="url(#bg-mobile)"/>
  
  <!-- Status Bar -->
  <rect x="0" y="0" width="640" height="44" fill="#1f2937"/>
  <text x="24" y="28" font-family="Arial, sans-serif" font-size="14" fill="#ffffff">9:41</text>
  <text x="580" y="28" font-family="Arial, sans-serif" font-size="14" fill="#ffffff">100%</text>
  
  <!-- Header -->
  <rect x="0" y="44" width="640" height="64" fill="#1f2937"/>
  <text x="24" y="84" font-family="Arial, sans-serif" font-size="18" font-weight="bold" fill="#ffffff">6FB AI</text>
  
  <!-- Main Content -->
  <rect x="0" y="108" width="640" height="1028" fill="#ffffff"/>
  
  <!-- Dashboard Cards (Mobile Layout) -->
  <rect x="24" y="132" width="592" height="120" fill="#f9fafb" stroke="#e5e7eb" rx="8"/>
  <text x="44" y="156" font-family="Arial, sans-serif" font-size="16" font-weight="bold" fill="#111827">AI Agents</text>
  <text x="44" y="178" font-family="Arial, sans-serif" font-size="12" fill="#6b7280">7 active consultants</text>
  
  <rect x="24" y="272" width="592" height="120" fill="#f9fafb" stroke="#e5e7eb" rx="8"/>
  <text x="44" y="296" font-family="Arial, sans-serif" font-size="16" font-weight="bold" fill="#111827">Integrations</text>
  <text x="44" y="318" font-family="Arial, sans-serif" font-size="12" fill="#6b7280">3 connected tools</text>
  
  <rect x="24" y="412" width="592" height="120" fill="#f9fafb" stroke="#e5e7eb" rx="8"/>
  <text x="44" y="436" font-family="Arial, sans-serif" font-size="16" font-weight="bold" fill="#111827">Analytics</text>
  <text x="44" y="458" font-family="Arial, sans-serif" font-size="12" fill="#6b7280">Business performance</text>
  
  <!-- Chart Area -->
  <rect x="24" y="552" width="592" height="200" fill="#f9fafb" stroke="#e5e7eb" rx="8"/>
  <text x="44" y="576" font-family="Arial, sans-serif" font-size="16" font-weight="bold" fill="#111827">Quick Stats</text>
  
  <!-- Mobile chart -->
  <polyline points="50,620 120,610 190,600 260,580 330,600 400,590 470,570 540,580 590,560" 
            stroke="#3b82f6" stroke-width="2" fill="none"/>
  
  <!-- Bottom Navigation -->
  <rect x="0" y="1072" width="640" height="64" fill="#ffffff" stroke="#e5e7eb"/>
  <circle cx="128" cy="1104" r="4" fill="#3b82f6"/>
  <circle cx="320" cy="1104" r="4" fill="#9ca3af"/>
  <circle cx="512" cy="1104" r="4" fill="#9ca3af"/>
</svg>